<svg version="1.1" id="Layer_1" xmlns="http://www.w3.org/2000/svg" xmlns:xlink="http://www.w3.org/1999/xlink" x="0px" y="0px"
	 width="100%" viewBox="0 0 1178 534" enable-background="new 0 0 1178 534" xml:space="preserve">
<path fill="#000000" opacity="1.000000" stroke="none" 
	d="
M826.000000,535.000000 
	C550.666748,535.000000 275.833496,535.000000 1.000184,535.000000 
	C1.000123,357.000122 1.000123,179.000275 1.000062,1.000304 
	C393.666412,1.000202 786.332825,1.000202 1178.999512,1.000101 
	C1178.999634,178.999695 1178.999634,356.999390 1178.999756,534.999512 
	C1061.500000,535.000000 944.000000,535.000000 826.000000,535.000000 
M302.026215,389.563538 
	C302.342438,389.763885 302.658661,389.964233 302.973602,390.045288 
	C302.973602,390.045288 302.854309,390.047150 303.091522,390.673645 
	C303.726715,390.841034 304.361877,391.008423 304.992096,391.029572 
	C304.992096,391.029572 304.845856,391.034821 305.137268,391.715332 
	C305.612213,391.800873 306.087189,391.886444 306.530212,391.909698 
	C306.530212,391.909698 306.467529,391.940826 307.044556,392.592133 
	C307.883820,392.693817 308.723114,392.795502 309.547699,392.845886 
	C309.547699,392.845886 309.496521,392.861115 310.052551,393.612793 
	C314.431061,393.403625 318.809570,393.194489 324.242554,392.985291 
	C324.583466,392.899689 324.924377,392.814087 325.226257,392.723572 
	C325.226257,392.723572 325.223419,392.751801 326.011841,392.491699 
	C327.200470,391.641174 328.450348,390.863800 329.567841,389.928314 
	C337.201141,383.538116 340.484680,374.536926 343.961060,365.682343 
	C348.432587,354.293152 352.290771,342.629547 357.384521,331.529907 
	C360.847900,323.983002 365.825500,317.047668 374.400482,314.033417 
	C374.964081,315.112244 375.603485,315.936554 375.848450,316.864960 
	C379.587219,331.032959 384.014893,344.838257 390.740204,358.041443 
	C395.831238,368.036194 402.132690,376.376770 411.620575,382.064575 
	C422.134308,388.367371 438.962189,391.195740 448.603271,377.970947 
	C452.569153,372.530884 453.697968,364.602356 446.461212,360.836823 
	C441.998993,358.514954 437.219238,356.769775 432.879486,354.252808 
	C422.491760,348.228149 420.524628,338.005890 419.993805,327.173218 
	C419.186249,310.694702 414.346588,295.879883 401.339111,284.887817 
	C391.150818,276.278137 378.228455,272.996155 366.299896,282.064545 
	C358.701965,287.840668 352.013824,294.838898 345.092560,301.471619 
	C339.550812,306.782318 333.488373,310.990967 325.978485,313.081940 
	C317.992401,315.305511 311.038452,319.343201 305.613556,325.786804 
	C297.524292,335.395142 292.660309,346.380127 292.077240,358.960083 
	C291.626373,368.688446 292.587891,378.215179 299.432312,386.566437 
	C299.971863,386.985260 300.511444,387.404083 300.894928,387.843475 
	C300.894928,387.843475 300.913422,387.999817 301.030548,388.561066 
	C301.344818,388.758484 301.659119,388.955872 301.975189,389.019409 
	C301.975189,389.019409 301.841339,389.017944 302.026215,389.563538 
M920.964172,250.037048 
	C920.964172,250.037048 920.853699,250.038315 921.155701,250.738907 
	C923.294067,251.459610 925.432373,252.180298 927.555115,252.841995 
	C927.555115,252.841995 927.496887,252.860229 928.046082,253.605225 
	C931.760010,253.398560 935.473877,253.191895 939.916199,253.017685 
	C948.565430,249.797089 956.810120,237.085632 955.963867,228.164017 
	C955.859619,227.064529 955.390015,225.985321 955.000854,224.929474 
	C951.945618,216.639648 940.456482,207.939819 929.052307,208.866455 
	C918.253540,209.743896 907.743591,223.887695 909.756042,234.297791 
	C911.077759,241.135071 915.335999,245.021317 920.062988,249.618820 
	C920.363586,249.795059 920.664185,249.971283 920.964172,250.037048 
M228.878677,382.323639 
	C232.118881,389.129395 237.658447,393.567535 244.309143,396.563690 
	C246.539856,397.568634 249.461975,398.020966 251.835724,397.551392 
	C260.775543,395.782806 271.905457,380.842224 271.024628,372.343597 
	C270.247986,364.849762 269.557404,357.347015 268.915070,348.933136 
	C268.892029,338.951599 268.869019,328.970093 268.969360,318.060944 
	C269.591522,304.723267 270.213684,291.385620 270.995544,277.112122 
	C270.938965,265.840668 270.882355,254.569229 270.990143,242.426376 
	C271.320129,241.338791 271.872070,240.266006 271.945709,239.161331 
	C272.678345,228.170776 273.332001,217.174973 274.789520,205.738663 
	C274.862091,200.977798 275.078827,196.213165 274.954865,191.457413 
	C274.876587,188.453781 274.289581,185.463425 273.901520,182.533813 
	C273.901520,182.533813 273.967743,182.564117 273.990997,181.664429 
	C273.637390,180.598343 273.283813,179.532257 272.898651,178.538544 
	C272.898651,178.538544 272.970520,178.571289 272.952545,177.852921 
	C272.647949,177.532974 272.343353,177.213013 271.802216,176.245743 
	C267.748962,168.566162 261.649292,163.672928 252.992096,161.966980 
	C238.774673,159.165329 231.539795,165.628662 229.283279,177.365646 
	C228.184525,183.080704 227.764816,188.934082 227.187363,194.739746 
	C226.373932,202.918182 225.442871,211.097900 225.042023,219.300522 
	C224.682892,226.649094 226.499451,234.451309 224.608047,241.293762 
	C221.973511,250.824585 224.610992,260.166382 223.142609,269.521515 
	C222.296509,274.912048 222.870682,280.525513 222.137619,286.454834 
	C221.740997,287.991791 221.007233,289.527069 220.999527,291.065948 
	C220.916458,307.659912 220.904022,324.254730 221.027985,340.848145 
	C221.038254,342.223999 222.183060,343.591339 222.955933,345.840759 
	C222.776382,346.696198 222.596832,347.551636 222.290802,349.106537 
	C222.513245,354.662323 222.286133,360.284790 223.097015,365.753326 
	C223.774551,370.322540 225.667084,374.711609 227.041473,379.540894 
	C227.041473,379.540894 227.360458,379.709869 227.321350,380.255371 
	C227.797287,380.689087 228.273209,381.122772 228.878677,382.323639 
M680.992676,208.847931 
	C681.386230,210.309357 681.779785,211.770798 682.010315,213.874573 
	C682.329834,221.594299 682.628357,229.315048 683.005005,237.031982 
	C683.038513,237.717667 683.580811,238.378525 683.979492,239.827942 
	C685.026611,249.769714 682.963196,255.422592 675.472412,257.928925 
	C668.746338,260.179413 661.485229,261.059814 654.383728,261.893463 
	C647.615540,262.687958 640.704285,262.264404 633.936829,263.062653 
	C626.070740,263.990509 619.025208,267.563049 616.244385,275.245026 
	C612.972839,284.282867 612.733154,293.954468 620.683472,301.007690 
	C630.934143,310.101593 643.460510,312.479889 656.851868,310.628815 
	C663.962280,309.645966 671.027893,308.259857 678.163208,307.559509 
	C684.341858,306.953033 688.702759,309.537598 689.262451,315.078369 
	C690.083618,323.208679 690.411865,331.566101 689.482727,339.658295 
	C687.648132,355.637543 692.623779,363.990234 708.629639,367.207001 
	C713.555664,368.196991 717.573242,367.263885 720.816406,364.553375 
	C728.908569,357.790222 732.830200,348.723297 732.978577,338.151398 
	C733.086182,330.490631 732.904114,322.824951 733.076477,315.166534 
	C733.122864,313.104950 733.631592,310.882019 734.549683,309.043579 
	C737.472961,303.189789 743.457764,302.295715 748.949341,301.071716 
	C762.881104,297.966583 774.089905,290.726379 783.682129,279.492126 
	C779.495239,276.626038 776.013550,273.430298 771.920532,271.607788 
	C763.049072,267.657715 753.919617,264.259735 744.788452,260.929993 
	C739.027161,258.829102 735.440186,255.326462 735.008423,249.006958 
	C734.379822,239.807404 733.576050,230.617905 733.080811,221.411560 
	C732.115051,203.457977 725.470032,188.124298 712.296570,175.792603 
	C704.759033,168.736725 694.166382,167.692032 686.816162,173.791290 
	C684.159546,175.995743 682.856628,179.831635 680.184265,183.281830 
	C680.112671,190.881607 680.016479,198.481354 680.012268,206.081161 
	C680.011902,206.746368 680.614807,207.411911 680.992676,208.847931 
M88.946075,338.562866 
	C90.009132,344.581451 89.979759,351.082581 92.377937,356.511383 
	C96.514130,365.874481 104.982498,371.562592 114.094063,375.511688 
	C125.027420,380.250427 135.812637,374.137939 135.117950,361.197632 
	C134.281967,345.625549 134.189865,330.007233 134.044189,314.406403 
	C133.926788,301.833710 140.629456,291.109955 151.284042,287.108582 
	C166.054245,281.561523 179.166977,273.768890 189.195572,261.316559 
	C196.146454,252.685806 200.919769,243.137314 200.953598,231.846405 
	C201.005417,214.557098 194.383286,200.353210 181.392410,188.730362 
	C168.446777,177.147995 153.356186,170.952026 136.341599,170.104660 
	C120.114677,169.296555 106.292671,174.657608 95.970871,188.263840 
	C90.414619,195.588104 86.432899,203.802200 84.401207,212.170975 
	C82.158165,221.410339 82.528419,231.542191 83.251640,241.173340 
	C84.023285,251.449265 86.683495,261.572113 88.243332,271.803833 
	C89.392380,279.340973 90.885269,286.951263 90.831955,294.519135 
	C90.730713,308.889587 89.631088,323.252960 88.946075,338.562866 
M513.046082,379.487549 
	C514.359619,378.522125 515.946655,377.778992 516.941528,376.554688 
	C522.712524,369.453156 528.582764,362.411560 533.952332,355.010803 
	C538.841980,348.271545 545.288513,345.952698 552.037476,350.787750 
	C564.266602,359.548737 576.927490,361.782867 591.353455,357.212616 
	C599.115540,354.753510 603.672668,349.886963 605.851929,342.690186 
	C608.137573,335.141876 603.108582,330.162048 597.752441,326.543732 
	C588.161865,320.064819 584.750610,310.581146 583.064880,300.022736 
	C581.739258,291.719879 577.856812,284.825256 570.504700,281.060272 
	C563.061218,277.248535 555.109619,277.332275 547.832275,282.550659 
	C540.688599,287.673187 534.172546,293.823761 525.196350,295.926514 
	C518.884644,297.405090 512.332825,298.469574 506.434631,300.995026 
	C482.158447,311.389465 468.030762,330.707642 460.339325,355.299591 
	C458.376923,361.574066 459.358398,367.924347 462.268433,373.513947 
	C469.497131,387.398956 497.686401,396.847656 513.046082,379.487549 
M1034.051880,307.493134 
	C1040.760132,302.102112 1047.931396,297.182373 1054.038574,291.179749 
	C1059.495972,285.815826 1059.382080,279.714417 1055.069702,275.572510 
	C1046.875854,267.702728 1037.230835,266.566254 1026.684570,269.670746 
	C1011.043396,274.274994 997.703369,282.431976 987.973877,295.647522 
	C980.636169,305.614288 976.119873,316.468384 976.755920,329.507538 
	C977.243530,339.503967 979.591736,348.323212 986.746033,355.127045 
	C998.541809,366.345123 1012.419861,370.922699 1029.111816,369.253235 
	C1050.669189,367.097137 1066.784668,357.261902 1079.680908,340.251740 
	C1083.918457,334.662415 1084.312622,329.445099 1083.594727,322.125519 
	C1078.970825,322.434479 1074.328613,322.014893 1070.113037,323.162598 
	C1057.231934,326.669586 1044.533813,330.844818 1031.709351,334.569824 
	C1030.157349,335.020599 1028.105347,334.701324 1026.561401,334.066711 
	C1018.974304,330.948486 1017.180786,322.385315 1023.034485,316.594727 
	C1026.233032,313.430756 1030.004150,310.845612 1034.051880,307.493134 
M871.045898,353.427856 
	C879.824341,341.000275 882.699219,327.925690 875.840698,313.552032 
	C871.098022,303.612762 863.234802,296.571960 853.075195,294.030762 
	C843.916565,291.739990 834.102234,292.327057 824.517090,294.798859 
	C813.749084,297.575714 806.459351,303.951294 802.157349,313.804321 
	C799.013123,321.005585 797.860352,328.761932 798.042969,336.628784 
	C798.130981,340.416321 797.872131,344.493835 799.167114,347.910645 
	C801.588989,354.300568 805.416138,360.002167 811.375977,363.876312 
	C823.105408,371.500946 835.691345,372.912781 848.982910,369.005585 
	C857.842285,366.401276 864.548401,360.671539 871.045898,353.427856 
M952.963989,329.786774 
	C951.917908,328.327881 950.948303,326.806335 949.813232,325.420319 
	C942.848816,316.916138 933.766357,313.516998 923.034912,315.121063 
	C915.111694,316.305359 909.388611,325.617096 909.704102,333.900299 
	C910.130920,345.103363 911.951233,355.464111 919.063049,364.282196 
	C930.280884,378.191559 945.323486,378.465363 955.208191,362.406403 
	C962.073547,351.252777 958.689331,340.820190 952.963989,329.786774 
z"/>
<path fill="#0197B2" opacity="1.000000" stroke="none" 
	d="
M88.946106,338.091064 
	C89.631088,323.252960 90.730713,308.889587 90.831955,294.519135 
	C90.885269,286.951263 89.392380,279.340973 88.243332,271.803833 
	C86.683495,261.572113 84.023285,251.449265 83.251640,241.173340 
	C82.528419,231.542191 82.158165,221.410339 84.401207,212.170975 
	C86.432899,203.802200 90.414619,195.588104 95.970871,188.263840 
	C106.292671,174.657608 120.114677,169.296555 136.341599,170.104660 
	C153.356186,170.952026 168.446777,177.147995 181.392410,188.730362 
	C194.383286,200.353210 201.005417,214.557098 200.953598,231.846405 
	C200.919769,243.137314 196.146454,252.685806 189.195572,261.316559 
	C179.166977,273.768890 166.054245,281.561523 151.284042,287.108582 
	C140.629456,291.109955 133.926788,301.833710 134.044189,314.406403 
	C134.189865,330.007233 134.281967,345.625549 135.117950,361.197632 
	C135.812637,374.137939 125.027420,380.250427 114.094063,375.511688 
	C104.982498,371.562592 96.514130,365.874481 92.377937,356.511383 
	C89.979759,351.082581 90.009132,344.581451 88.946106,338.091064 
z"/>
<path fill="#0197B2" opacity="1.000000" stroke="none" 
	d="
M680.936035,182.923080 
	C682.856628,179.831635 684.159546,175.995743 686.816162,173.791290 
	C694.166382,167.692032 704.759033,168.736725 712.296570,175.792603 
	C725.470032,188.124298 732.115051,203.457977 733.080811,221.411560 
	C733.576050,230.617905 734.379822,239.807404 735.008423,249.006958 
	C735.440186,255.326462 739.027161,258.829102 744.788452,260.929993 
	C753.919617,264.259735 763.049072,267.657715 771.920532,271.607788 
	C776.013550,273.430298 779.495239,276.626038 783.682129,279.492126 
	C774.089905,290.726379 762.881104,297.966583 748.949341,301.071716 
	C743.457764,302.295715 737.472961,303.189789 734.549683,309.043579 
	C733.631592,310.882019 733.122864,313.104950 733.076477,315.166534 
	C732.904114,322.824951 733.086182,330.490631 732.978577,338.151398 
	C732.830200,348.723297 728.908569,357.790222 720.816406,364.553375 
	C717.573242,367.263885 713.555664,368.196991 708.629639,367.207001 
	C692.623779,363.990234 687.648132,355.637543 689.482727,339.658295 
	C690.411865,331.566101 690.083618,323.208679 689.262451,315.078369 
	C688.702759,309.537598 684.341858,306.953033 678.163208,307.559509 
	C671.027893,308.259857 663.962280,309.645966 656.851868,310.628815 
	C643.460510,312.479889 630.934143,310.101593 620.683472,301.007690 
	C612.733154,293.954468 612.972839,284.282867 616.244385,275.245026 
	C619.025208,267.563049 626.070740,263.990509 633.936829,263.062653 
	C640.704285,262.264404 647.615540,262.687958 654.383728,261.893463 
	C661.485229,261.059814 668.746338,260.179413 675.472412,257.928925 
	C682.963196,255.422592 685.026611,249.769714 684.013184,239.033188 
	C683.983459,230.187943 685.032837,221.974442 680.595459,214.539490 
	C680.541870,214.449646 681.622314,213.682968 682.173340,213.232239 
	C681.779785,211.770798 681.386230,210.309357 681.092712,208.107712 
	C681.107178,199.219360 681.021606,191.071213 680.936035,182.923080 
z"/>
<path fill="#0197B2" opacity="1.000000" stroke="none" 
	d="
M222.417267,348.407074 
	C222.596832,347.551636 222.776382,346.696198 222.928925,344.937561 
	C222.869812,324.702423 222.837677,305.370544 222.805557,286.038635 
	C222.870682,280.525513 222.296509,274.912048 223.142609,269.521515 
	C224.610992,260.166382 221.973511,250.824585 224.608047,241.293762 
	C226.499451,234.451309 224.682892,226.649094 225.042023,219.300522 
	C225.442871,211.097900 226.373932,202.918182 227.187363,194.739746 
	C227.764816,188.934082 228.184525,183.080704 229.283279,177.365646 
	C231.539795,165.628662 238.774673,159.165329 252.992096,161.966980 
	C261.649292,163.672928 267.748962,168.566162 271.890137,176.938431 
	C272.308899,177.944504 272.639709,178.257904 272.970520,178.571289 
	C272.970520,178.571289 272.898651,178.538544 272.648071,178.897964 
	C272.920898,180.359634 273.444305,181.461868 273.967743,182.564117 
	C273.967743,182.564117 273.901520,182.533813 273.651123,182.944122 
	C273.532959,189.374283 273.657990,195.394287 273.802246,201.413849 
	C273.840363,203.003525 273.937775,204.591751 274.007935,206.180649 
	C273.332001,217.174973 272.678345,228.170776 271.945709,239.161331 
	C271.872070,240.266006 271.320129,241.338791 270.754913,243.212845 
	C270.367981,250.953949 270.090515,257.908936 270.110229,264.863098 
	C270.122681,269.258667 270.578766,273.653046 270.835876,278.047943 
	C270.213684,291.385620 269.591522,304.723267 268.551331,318.767761 
	C268.365143,329.599152 268.596985,339.723663 268.828796,349.848206 
	C269.557404,357.347015 270.247986,364.849762 271.024628,372.343597 
	C271.905457,380.842224 260.775543,395.782806 251.835724,397.551392 
	C249.461975,398.020966 246.539856,397.568634 244.309143,396.563690 
	C237.658447,393.567535 232.118881,389.129395 228.506287,382.232574 
	C227.876083,381.330963 227.618271,380.520416 227.360458,379.709869 
	C227.360458,379.709869 227.041473,379.540894 227.096161,378.940491 
	C225.572983,368.362427 223.995132,358.384766 222.417267,348.407074 
z"/>
<path fill="#0198B2" opacity="1.000000" stroke="none" 
	d="
M512.783752,379.739014 
	C497.686401,396.847656 469.497131,387.398956 462.268433,373.513947 
	C459.358398,367.924347 458.376923,361.574066 460.339325,355.299591 
	C468.030762,330.707642 482.158447,311.389465 506.434631,300.995026 
	C512.332825,298.469574 518.884644,297.405090 525.196350,295.926514 
	C534.172546,293.823761 540.688599,287.673187 547.832275,282.550659 
	C555.109619,277.332275 563.061218,277.248535 570.504700,281.060272 
	C577.856812,284.825256 581.739258,291.719879 583.064880,300.022736 
	C584.750610,310.581146 588.161865,320.064819 597.752441,326.543732 
	C603.108582,330.162048 608.137573,335.141876 605.851929,342.690186 
	C603.672668,349.886963 599.115540,354.753510 591.353455,357.212616 
	C576.927490,361.782867 564.266602,359.548737 552.037476,350.787750 
	C545.288513,345.952698 538.841980,348.271545 533.952332,355.010803 
	C528.582764,362.411560 522.712524,369.453156 516.941528,376.554688 
	C515.946655,377.778992 514.359619,378.522125 512.783752,379.739014 
z"/>
<path fill="#0298B2" opacity="1.000000" stroke="none" 
	d="
M309.496521,392.861115 
	C309.496521,392.861115 309.547699,392.845886 309.263672,392.526489 
	C308.142242,392.118347 307.304901,392.029572 306.467529,391.940826 
	C306.467529,391.940826 306.530212,391.909698 306.423523,391.552704 
	C305.826477,391.142090 305.336182,391.088470 304.845856,391.034821 
	C304.845856,391.034821 304.992096,391.029572 305.014221,390.701782 
	C304.309021,390.265045 303.581665,390.156097 302.854309,390.047119 
	C302.854309,390.047150 302.973602,390.045288 303.059814,389.726593 
	C302.711151,389.277893 302.276245,389.147919 301.841339,389.017944 
	C301.841339,389.017944 301.975189,389.019409 302.075378,388.740540 
	C301.754822,388.307709 301.334137,388.153748 300.913422,387.999817 
	C300.913422,387.999817 300.894928,387.843475 300.700134,388.297729 
	C300.168549,387.839233 299.831726,386.926453 299.494873,386.013672 
	C292.587891,378.215179 291.626373,368.688446 292.077240,358.960083 
	C292.660309,346.380127 297.524292,335.395142 305.613556,325.786804 
	C311.038452,319.343201 317.992401,315.305511 325.978485,313.081940 
	C333.488373,310.990967 339.550812,306.782318 345.092560,301.471619 
	C352.013824,294.838898 358.701965,287.840668 366.299896,282.064545 
	C378.228455,272.996155 391.150818,276.278137 401.339111,284.887817 
	C414.346588,295.879883 419.186249,310.694702 419.993805,327.173218 
	C420.524628,338.005890 422.491760,348.228149 432.879486,354.252808 
	C437.219238,356.769775 441.998993,358.514954 446.461212,360.836823 
	C453.697968,364.602356 452.569153,372.530884 448.603271,377.970947 
	C438.962189,391.195740 422.134308,388.367371 411.620575,382.064575 
	C402.132690,376.376770 395.831238,368.036194 390.740204,358.041443 
	C384.014893,344.838257 379.587219,331.032959 375.848450,316.864960 
	C375.603485,315.936554 374.964081,315.112244 374.400482,314.033417 
	C365.825500,317.047668 360.847900,323.983002 357.384521,331.529907 
	C352.290771,342.629547 348.432587,354.293152 343.961060,365.682343 
	C340.484680,374.536926 337.201141,383.538116 329.567841,389.928314 
	C328.450348,390.863800 327.200470,391.641174 325.623535,392.580139 
	C325.235199,392.668579 325.265289,392.728485 325.265289,392.728485 
	C324.924377,392.814087 324.583466,392.899689 323.237305,392.921875 
	C317.986877,392.859375 313.741699,392.860229 309.496521,392.861115 
z"/>
<path fill="#0298B2" opacity="1.000000" stroke="none" 
	d="
M1033.784424,307.746277 
	C1030.004150,310.845612 1026.233032,313.430756 1023.034485,316.594727 
	C1017.180786,322.385315 1018.974304,330.948486 1026.561401,334.066711 
	C1028.105347,334.701324 1030.157349,335.020599 1031.709351,334.569824 
	C1044.533813,330.844818 1057.231934,326.669586 1070.113037,323.162598 
	C1074.328613,322.014893 1078.970825,322.434479 1083.594727,322.125519 
	C1084.312622,329.445099 1083.918457,334.662415 1079.680908,340.251740 
	C1066.784668,357.261902 1050.669189,367.097137 1029.111816,369.253235 
	C1012.419861,370.922699 998.541809,366.345123 986.746033,355.127045 
	C979.591736,348.323212 977.243530,339.503967 976.755920,329.507538 
	C976.119873,316.468384 980.636169,305.614288 987.973877,295.647522 
	C997.703369,282.431976 1011.043396,274.274994 1026.684570,269.670746 
	C1037.230835,266.566254 1046.875854,267.702728 1055.069702,275.572510 
	C1059.382080,279.714417 1059.495972,285.815826 1054.038574,291.179749 
	C1047.931396,297.182373 1040.760132,302.102112 1033.784424,307.746277 
z"/>
<path fill="#0197B2" opacity="1.000000" stroke="none" 
	d="
M870.799866,353.692078 
	C864.548401,360.671539 857.842285,366.401276 848.982910,369.005585 
	C835.691345,372.912781 823.105408,371.500946 811.375977,363.876312 
	C805.416138,360.002167 801.588989,354.300568 799.167114,347.910645 
	C797.872131,344.493835 798.130981,340.416321 798.042969,336.628784 
	C797.860352,328.761932 799.013123,321.005585 802.157349,313.804321 
	C806.459351,303.951294 813.749084,297.575714 824.517090,294.798859 
	C834.102234,292.327057 843.916565,291.739990 853.075195,294.030762 
	C863.234802,296.571960 871.098022,303.612762 875.840698,313.552032 
	C882.699219,327.925690 879.824341,341.000275 870.799866,353.692078 
z"/>
<path fill="#0298B3" opacity="1.000000" stroke="none" 
	d="
M952.987671,330.162781 
	C958.689331,340.820190 962.073547,351.252777 955.208191,362.406403 
	C945.323486,378.465363 930.280884,378.191559 919.063049,364.282196 
	C911.951233,355.464111 910.130920,345.103363 909.704102,333.900299 
	C909.388611,325.617096 915.111694,316.305359 923.034912,315.121063 
	C933.766357,313.516998 942.848816,316.916138 949.813232,325.420319 
	C950.948303,326.806335 951.917908,328.327881 952.987671,330.162781 
z"/>
<path fill="#0298B2" opacity="1.000000" stroke="none" 
	d="
M927.496887,252.860229 
	C927.496887,252.860229 927.555115,252.841995 927.340332,252.555023 
	C925.034912,251.524796 922.944336,250.781555 920.853699,250.038330 
	C920.853699,250.038315 920.964172,250.037048 921.084229,249.768860 
	C920.791748,249.364380 920.379150,249.228058 919.966553,249.091736 
	C915.335999,245.021317 911.077759,241.135071 909.756042,234.297791 
	C907.743591,223.887695 918.253540,209.743896 929.052307,208.866455 
	C940.456482,207.939819 951.945618,216.639648 955.000854,224.929474 
	C955.390015,225.985321 955.859619,227.064529 955.963867,228.164017 
	C956.810120,237.085632 948.565430,249.797089 939.073853,252.938614 
	C934.653320,252.859772 931.075073,252.860001 927.496887,252.860229 
z"/>
<path fill="#D2EBEE" opacity="1.000000" stroke="none" 
	d="
M222.471588,286.246735 
	C222.837677,305.370544 222.869812,324.702423 222.851318,344.498474 
	C222.183060,343.591339 221.038254,342.223999 221.027985,340.848145 
	C220.904022,324.254730 220.916458,307.659912 220.999527,291.065948 
	C221.007233,289.527069 221.740997,287.991791 222.471588,286.246735 
z"/>
<path fill="#D2EBEE" opacity="1.000000" stroke="none" 
	d="
M222.354034,348.756805 
	C223.995132,358.384766 225.572983,368.362427 227.086197,378.760284 
	C225.667084,374.711609 223.774551,370.322540 223.097015,365.753326 
	C222.286133,360.284790 222.513245,354.662323 222.354034,348.756805 
z"/>
<path fill="#D2EBEE" opacity="1.000000" stroke="none" 
	d="
M680.560181,183.102448 
	C681.021606,191.071213 681.107178,199.219360 681.065125,207.722397 
	C680.614807,207.411911 680.011902,206.746368 680.012268,206.081161 
	C680.016479,198.481354 680.112671,190.881607 680.560181,183.102448 
z"/>
<path fill="#D2EBEE" opacity="1.000000" stroke="none" 
	d="
M682.091858,213.553406 
	C681.622314,213.682968 680.541870,214.449646 680.595459,214.539490 
	C685.032837,221.974442 683.983459,230.187943 683.966797,238.644684 
	C683.580811,238.378525 683.038513,237.717667 683.005005,237.031982 
	C682.628357,229.315048 682.329834,221.594299 682.091858,213.553406 
z"/>
<path fill="#6CC1CE" opacity="1.000000" stroke="none" 
	d="
M270.915710,277.580017 
	C270.578766,273.653046 270.122681,269.258667 270.110229,264.863098 
	C270.090515,257.908936 270.367981,250.953949 270.672729,243.648544 
	C270.882355,254.569229 270.938965,265.840668 270.915710,277.580017 
z"/>
<path fill="#F3F7F3" opacity="1.000000" stroke="none" 
	d="
M268.871948,349.390686 
	C268.596985,339.723663 268.365143,329.599152 268.489624,319.231567 
	C268.869019,328.970093 268.892029,338.951599 268.871948,349.390686 
z"/>
<path fill="#F3F7F3" opacity="1.000000" stroke="none" 
	d="
M274.398743,205.959656 
	C273.937775,204.591751 273.840363,203.003525 273.802246,201.413849 
	C273.657990,195.394287 273.532959,189.374283 273.665741,182.910767 
	C274.289581,185.463425 274.876587,188.453781 274.954865,191.457413 
	C275.078827,196.213165 274.862091,200.977798 274.398743,205.959656 
z"/>
<path fill="#D2EBEE" opacity="1.000000" stroke="none" 
	d="
M309.774536,393.236938 
	C313.741699,392.860229 317.986877,392.859375 322.710083,392.921906 
	C318.809570,393.194489 314.431061,393.403625 309.774536,393.236938 
z"/>
<path fill="#D2EBEE" opacity="1.000000" stroke="none" 
	d="
M927.771484,253.232727 
	C931.075073,252.860001 934.653320,252.859772 938.709656,252.922394 
	C935.473877,253.191895 931.760010,253.398560 927.771484,253.232727 
z"/>
<path fill="#D2EBEE" opacity="1.000000" stroke="none" 
	d="
M921.004700,250.388611 
	C922.944336,250.781555 925.034912,251.524796 927.348145,252.584503 
	C925.432373,252.180298 923.294067,251.459610 921.004700,250.388611 
z"/>
<path fill="#F3F7F3" opacity="1.000000" stroke="none" 
	d="
M273.979370,182.114273 
	C273.444305,181.461868 272.920898,180.359634 272.663849,178.861771 
	C273.283813,179.532257 273.637390,180.598343 273.979370,182.114273 
z"/>
<path fill="#D2EBEE" opacity="1.000000" stroke="none" 
	d="
M227.340912,379.982605 
	C227.618271,380.520416 227.876083,381.330963 228.441513,381.848999 
	C228.273209,381.122772 227.797287,380.689087 227.340912,379.982605 
z"/>
<path fill="#D2EBEE" opacity="1.000000" stroke="none" 
	d="
M299.463593,386.290039 
	C299.831726,386.926453 300.168549,387.839233 300.778198,388.287476 
	C300.511444,387.404083 299.971863,386.985260 299.463593,386.290039 
z"/>
<path fill="#D2EBEE" opacity="1.000000" stroke="none" 
	d="
M325.245789,392.726013 
	C325.265289,392.728485 325.235199,392.668579 325.229309,392.710205 
	C325.223419,392.751801 325.226257,392.723572 325.245789,392.726013 
z"/>
<path fill="#D2EBEE" opacity="1.000000" stroke="none" 
	d="
M302.972900,390.360382 
	C303.581665,390.156097 304.309021,390.265045 305.016724,390.774902 
	C304.361877,391.008423 303.726715,390.841034 302.972900,390.360382 
z"/>
<path fill="#D2EBEE" opacity="1.000000" stroke="none" 
	d="
M306.756042,392.266479 
	C307.304901,392.029572 308.142242,392.118347 309.270996,392.552124 
	C308.723114,392.795502 307.883820,392.693817 306.756042,392.266479 
z"/>
<path fill="#D2EBEE" opacity="1.000000" stroke="none" 
	d="
M920.014771,249.355286 
	C920.379150,249.228058 920.791748,249.364380 921.084595,249.824097 
	C920.664185,249.971283 920.363586,249.795059 920.014771,249.355286 
z"/>
<path fill="#D2EBEE" opacity="1.000000" stroke="none" 
	d="
M300.971985,388.280457 
	C301.334137,388.153748 301.754822,388.307709 302.074463,388.807465 
	C301.659119,388.955872 301.344818,388.758484 300.971985,388.280457 
z"/>
<path fill="#F3F7F3" opacity="1.000000" stroke="none" 
	d="
M272.961548,178.212097 
	C272.639709,178.257904 272.308899,177.944504 272.008423,177.262085 
	C272.343353,177.213013 272.647949,177.532974 272.961548,178.212097 
z"/>
<path fill="#D2EBEE" opacity="1.000000" stroke="none" 
	d="
M301.933777,389.290741 
	C302.276245,389.147919 302.711151,389.277893 303.060486,389.786255 
	C302.658661,389.964233 302.342438,389.763885 301.933777,389.290741 
z"/>
<path fill="#D2EBEE" opacity="1.000000" stroke="none" 
	d="
M304.991577,391.375061 
	C305.336182,391.088470 305.826477,391.142090 306.439453,391.583862 
	C306.087189,391.886444 305.612213,391.800873 304.991577,391.375061 
z"/>
</svg>