<?xml version="1.0" encoding="UTF-8"?>
<svg version="1.1" xmlns="http://www.w3.org/2000/svg" width="1178" height="534">
<path d="M0 0 C9.97962446 9.58667251 16.19282642 23.31741611 17.02734375 37.02734375 C17.24026334 48.99342486 15.78928723 58.00004229 8.8359375 67.8828125 C8.3203125 68.63304687 7.8046875 69.38328125 7.2734375 70.15625 C-2.76984416 83.91747727 -15.8147396 91.57971811 -31.2265625 98.0703125 C-39.09672899 101.49543331 -43.60983821 105.59866342 -47.25390625 113.41796875 C-49.19694618 118.68002109 -49.31964073 123.69597175 -49.2890625 129.2578125 C-49.2885791 130.1019873 -49.2880957 130.94616211 -49.28759766 131.81591797 C-49.25872937 137.46315204 -49.09507535 143.09983901 -48.8671875 148.7421875 C-48.84079193 149.42290314 -48.81439636 150.10361877 -48.78720093 150.80496216 C-48.65498118 154.20230436 -48.51022957 157.5976953 -48.34423828 160.99365234 C-47.61928437 178.7290512 -47.61928437 178.7290512 -51.5168457 183.55932617 C-55.32675126 186.89145279 -58.97314025 188.27592527 -64.01953125 188.1484375 C-73.9010948 186.92449156 -80.39799411 181.83240897 -87.1640625 174.8828125 C-87.97037109 174.12484375 -87.97037109 174.12484375 -88.79296875 173.3515625 C-95.31274157 166.6566316 -95.49852129 156.90702383 -95.38793945 148.11938477 C-95.27460055 143.55124161 -94.98828571 139.00350934 -94.6640625 134.4453125 C-93.26113173 113.78114989 -94.61969913 94.27758849 -98.1640625 73.8828125 C-98.4645652 72.11085036 -98.7641248 70.33872788 -99.0625 68.56640625 C-99.19640137 67.77161865 -99.33030273 66.97683105 -99.46826172 66.15795898 C-99.65799561 65.03176147 -99.65799561 65.03176147 -99.8515625 63.8828125 C-99.97418457 63.16230713 -100.09680664 62.44180176 -100.22314453 61.69946289 C-103.84499726 40.13899638 -102.98631062 17.96247214 -90.0390625 -0.4921875 C-87.58933838 -3.74864807 -85.76549646 -5.33965572 -82.1640625 -7.1171875 C-81.8340625 -8.1071875 -81.5040625 -9.0971875 -81.1640625 -10.1171875 C-78.43359375 -11.87109375 -78.43359375 -11.87109375 -74.9765625 -13.6796875 C-73.84863281 -14.27910156 -72.72070312 -14.87851563 -71.55859375 -15.49609375 C-47.07296645 -27.18946007 -19.29635363 -16.56143737 0 0 Z " fill="#079AB4" transform="translate(183.1640625,188.1171875)"/>
<path d="M0 0 C6.62439255 4.70890555 11.39141671 10.52907202 15.26953125 17.61328125 C15.78966797 18.49886719 15.78966797 18.49886719 16.3203125 19.40234375 C23.14647405 31.78958671 24.07218701 45.32442519 24.89453125 59.11328125 C25.05501624 61.66847301 25.22002834 64.2231649 25.39413452 66.77746582 C25.50062975 68.35072579 25.59915147 69.92455419 25.68814087 71.49890137 C25.9725268 75.82605239 26.51336437 79.63037958 28.26953125 83.61328125 C32.84177222 86.84841086 37.44846569 88.45104212 42.83203125 89.92578125 C53.26555936 92.99855279 65.7331393 97.46836075 73.26953125 105.61328125 C73.26953125 109.54208911 72.12763196 110.18795199 69.39453125 112.92578125 C64.76448879 117.39616707 59.97019984 120.66309448 54.26953125 123.61328125 C53.563125 123.98066406 52.85671875 124.34804688 52.12890625 124.7265625 C44.83217349 128.22629173 36.83049774 130.44547829 28.92578125 132.10546875 C27.05830289 132.47813671 27.05830289 132.47813671 26.08203125 134.55078125 C25.81390625 135.23140625 25.54578125 135.91203125 25.26953125 136.61328125 C24.93953125 137.27328125 24.60953125 137.93328125 24.26953125 138.61328125 C24.17322891 141.09735898 24.13246258 143.5585236 24.12890625 146.04296875 C24.11054947 147.57683742 24.09097659 149.11069193 24.0703125 150.64453125 C24.04159041 153.0513451 24.01953762 155.45726265 24.01904297 157.86425781 C24.00101541 170.2620675 22.89884231 181.80681058 13.8671875 191.27734375 C10.1976781 194.34573548 6.57840497 195.46785084 1.89453125 195.98828125 C-6.68616276 195.10062325 -12.98288728 192.17792088 -18.73046875 185.61328125 C-21.84345603 179.25195941 -21.90716302 172.71032525 -20.98168945 165.84765625 C-20.54006903 161.91985248 -20.50568217 157.99983269 -20.48046875 154.05078125 C-20.45984375 153.23931641 -20.43921875 152.42785156 -20.41796875 151.59179688 C-20.38316165 146.20104766 -20.81019857 142.22517135 -23.73046875 137.61328125 C-29.56411519 134.68895977 -34.94108023 135.92495514 -41.10546875 136.98828125 C-67.35568251 141.00990785 -67.35568251 141.00990785 -78.73046875 135.61328125 C-79.75333984 135.195625 -79.75333984 135.195625 -80.796875 134.76953125 C-87.26184904 131.92347057 -92.36581189 127.81725821 -95.16796875 121.23828125 C-95.83372693 116.94783965 -95.95375078 112.94033295 -95.73046875 108.61328125 C-95.68921875 107.41703125 -95.64796875 106.22078125 -95.60546875 104.98828125 C-94.24523327 99.74165867 -91.34899512 96.49115539 -86.9765625 93.35546875 C-78.09130089 88.34707494 -67.70724219 88.52148235 -57.79296875 88.17578125 C-42.00322101 87.9996926 -42.00322101 87.9996926 -28.73046875 80.61328125 C-26.59220405 75.41584729 -26.54196825 70.63044281 -26.91796875 65.11328125 C-26.96622803 64.28030518 -27.0144873 63.4473291 -27.06420898 62.58911133 C-27.68755078 52.78612183 -28.69802328 43.00748254 -29.71362305 33.23828125 C-29.90952026 31.32595703 -29.90952026 31.32595703 -30.109375 29.375 C-30.22869385 28.24022217 -30.3480127 27.10544434 -30.47094727 25.9362793 C-31.08703985 18.0476282 -31.27514364 9.22960203 -26.21875 2.64453125 C-18.45828274 -4.47068368 -8.88893449 -5.37576106 0 0 Z " fill="#0A9BB4" transform="translate(708.73046875,171.38671875)"/>
<path d="M0 0 C6.1905609 5.28700763 10.13227528 12.30855943 11.3659668 20.40039062 C11.50422422 22.92585825 11.50071829 25.40900003 11.4375 27.9375 C11.4264624 28.91581787 11.4154248 29.89413574 11.40405273 30.90209961 C11.20121133 40.38329966 10.26341919 49.79961681 9.35305786 59.23272705 C7.86356657 74.87054782 7.50907428 90.48874989 7.29125977 106.18969727 C7.26475582 108.06006244 7.23798751 109.93042389 7.2109375 111.80078125 C7.19813248 112.70896103 7.18532745 113.61714081 7.1721344 114.55284119 C7.09254946 119.27220887 6.89565553 123.94000795 6.484375 128.64453125 C5.64859722 138.96753698 5.85164429 149.338531 5.86962891 159.68798828 C5.87501761 163.38708538 5.86964297 167.0860627 5.86328125 170.78515625 C5.86394159 173.15625027 5.86522185 175.52734421 5.8671875 177.8984375 C5.86516327 178.99441254 5.86313904 180.09038757 5.86105347 181.21957397 C5.87839284 186.91469849 6.17549294 192.36553731 7 198 C7.58098714 206.51479507 7.86130561 214.65868823 3 222 C-2.11093102 227.52693703 -7.11091959 232.6174675 -14.8125 233.375 C-21.41957745 233.20306862 -26.16379549 229.17638126 -31 225 C-32.9140625 222.58984375 -32.9140625 222.58984375 -34.625 219.9375 C-35.19476563 219.08027344 -35.76453125 218.22304688 -36.3515625 217.33984375 C-40.28655454 209.36728878 -41.53210177 200.7779279 -42.171875 191.9921875 C-42.25145447 190.96269989 -42.33103394 189.93321228 -42.4130249 188.87252808 C-43.2791753 176.63000698 -43.30626925 164.39222572 -43.25 152.125 C-43.24689819 150.90646332 -43.24379639 149.68792664 -43.24060059 148.4324646 C-43.17708698 126.95736319 -42.51283211 105.58431495 -41.19006348 84.15301514 C-40.93664082 79.94891718 -40.70161077 75.7438415 -40.46543121 71.53874493 C-40.11659664 65.35212872 -39.74754404 59.16682453 -39.37194824 52.98178101 C-39.20810225 50.27848714 -39.05020966 47.574952 -38.89758301 44.8710022 C-36.73901887 7.28871216 -36.73901887 7.28871216 -28 -2 C-18.93178838 -6.90944569 -8.48985791 -5.35466358 0 0 Z " fill="#0B9BB5" transform="translate(263,164)"/>
<path d="M0 0 C7.43142273 5.40467108 12.18459813 12.16890649 13.6875 21.25 C15.72182143 33.34108786 20.77248094 40.81696904 30 48.6875 C35.51696457 53.46529845 35.51696457 53.46529845 36.75 57 C37.06685547 62.97936944 36.10961603 67.88503834 32.2421875 72.5390625 C25.54499227 79.09600234 15.231417 81.01467415 6.125 81.375 C-3.21173706 80.94905397 -10.09473468 77.66843561 -17.74609375 72.53125 C-21.00264202 70.53972594 -23.43175799 69.85026502 -27.25 70 C-33.10749775 72.12205142 -35.24201795 75.37907013 -38.375 80.4375 C-46.20021881 92.39792003 -57.18262818 105.47834477 -71.25 110 C-82.257919 111.18187395 -92.58154544 109.55306777 -101.75 103.125 C-108.04979439 97.8316043 -110.12008128 92.63917343 -111.109375 84.55078125 C-111.75104957 68.34849843 -102.42941503 53.90799494 -92.25 42 C-91.7446875 41.34 -91.239375 40.68 -90.71875 40 C-79.96872516 26.50977275 -64.02054748 20.46379064 -47.86132812 16.22973633 C-39.94162259 14.10901846 -33.46726794 11.38811159 -27.25 5.9375 C-19.05832835 -0.75797591 -10.43851011 -3.21184927 0 0 Z " fill="#0A9BB4" transform="translate(569.25,278)"/>
<path d="M0 0 C13.79799759 10.14194134 20.43268933 23.33410422 23 40 C23.25129918 42.2988107 23.46060482 44.59890667 23.66479492 46.90234375 C24.51119816 56.35532111 25.96956279 63.5763494 32.5625 70.8125 C36.31065047 73.58456962 40.76046327 75.07821607 45.09765625 76.69140625 C48.84423918 78.3806462 51.88609195 80.46174603 54.3125 83.8125 C55.56355075 87.79311602 55.80733049 91.21519913 54.0546875 95.08984375 C50.56119752 100.98922778 46.5963108 104.8197068 40 107 C27.90053866 108.20156314 18.19863471 106.46424139 8.375 99.0625 C-2.29179708 89.73285127 -7.94686134 77.93914658 -13 65 C-13.46277344 63.8346875 -13.92554688 62.669375 -14.40234375 61.46875 C-17.78814583 52.4948308 -19.97309719 43.35319399 -22 34 C-38.54761764 43.11378941 -44.03684759 60.97466396 -49.67773438 78.05175781 C-58.99688695 106.07304535 -58.99688695 106.07304535 -69 112 C-75.27050332 115.03479672 -82.71949899 115.15670497 -89.4140625 113.34765625 C-96.13944656 110.32253176 -100.34787952 105.04212651 -103.375 98.4375 C-107.29222743 86.48747709 -106.83581844 71.26440978 -101.56640625 59.83984375 C-94.26767662 46.60748355 -94.26767662 46.60748355 -90 43 C-89.34 43 -88.68 43 -88 43 C-87.67 42.01 -87.34 41.02 -87 40 C-81.5878412 36.21975167 -75.48956103 33.73440947 -69.3125 31.5 C-63.69375196 29.41873593 -59.50450223 26.90523364 -55 23 C-54.40832031 22.52691406 -53.81664062 22.05382812 -53.20703125 21.56640625 C-49.18006586 18.28616292 -45.85828203 14.66027585 -42.578125 10.63671875 C-41 9 -41 9 -38 8 C-37.55720703 7.07574219 -37.55720703 7.07574219 -37.10546875 6.1328125 C-34.48815311 1.08315053 -27.51961325 -1.4134826 -22.4375 -3.375 C-14.11564305 -4.8880649 -7.45931367 -4.24448676 0 0 Z " fill="#0C9BB5" transform="translate(396,279)"/>
<path d="M0 0 C1.175625 0.8353125 1.175625 0.8353125 2.375 1.6875 C4.52577919 4.74822423 4.6913321 6.94261578 4.50390625 10.63671875 C2.86707783 18.31331714 -4.96974093 24.53236458 -11 29 C-13.77734375 30.2265625 -13.77734375 30.2265625 -16 31 C-16 31.66 -16 32.32 -16 33 C-20.38461538 36 -20.38461538 36 -23 36 C-23 36.66 -23 37.32 -23 38 C-24.6796875 39.40234375 -24.6796875 39.40234375 -26.875 40.9375 C-29.67496035 42.89947938 -31.06062762 44.09094143 -33 47 C-33.24150773 49.51584891 -33.24150773 49.51584891 -33.125 52.1875 C-33.10695313 53.08855469 -33.08890625 53.98960937 -33.0703125 54.91796875 C-33.04710937 55.60503906 -33.02390625 56.29210937 -33 57 C-32.34 57 -31.68 57 -31 57 C-31 57.66 -31 58.32 -31 59 C-24.73189372 61.00579401 -18.91282359 59.93725155 -12.74609375 58.1015625 C-12.08215103 57.90654144 -11.41820831 57.71152039 -10.73414612 57.5105896 C-8.63253389 56.89086818 -6.53512173 56.25808017 -4.4375 55.625 C-3.02694229 55.20748918 -1.6161366 54.79081522 -0.20507812 54.375 C7.04846104 52.23839816 7.04846104 52.23839816 14.23071289 49.87695312 C17.56236698 48.82191464 20.3894715 48.80386677 23.875 48.875 C25.02742188 48.89304687 26.17984375 48.91109375 27.3671875 48.9296875 C28.67042969 48.96449219 28.67042969 48.96449219 30 49 C30.8390611 56.33013103 30.86545825 61.74069946 26.4375 67.875 C25.00017406 69.61868316 23.52177016 71.32950535 22 73 C21.00033203 74.10794922 21.00033203 74.10794922 19.98046875 75.23828125 C16.81876306 78.55973628 16.81876306 78.55973628 15 80 C14.34 80 13.68 80 13 80 C13 80.66 13 81.32 13 82 C0.10270972 92.87983705 -17.61520617 97.70775811 -34.34375 97.24609375 C-48.19268109 95.96303102 -59.45637544 91.65966054 -69.05859375 81.421875 C-76.84558906 71.70771586 -79.11194533 60.20251692 -78 48 C-76.16957298 36.53833282 -72.09575102 28.96962893 -65 20 C-64.2884375 19.05382812 -63.576875 18.10765625 -62.84375 17.1328125 C-62.2353125 16.42898438 -61.626875 15.72515625 -61 15 C-60.34 15 -59.68 15 -59 15 C-59 14.34 -59 13.68 -59 13 C-57.11509805 11.47991778 -55.24913222 10.10579147 -53.25 8.75 C-52.37069824 8.14937744 -52.37069824 8.14937744 -51.47363281 7.53662109 C-37.28770951 -1.95750437 -15.42882512 -13.11450135 0 0 Z " fill="#0B9BB5" transform="translate(1053,272)"/>
<path d="M0 0 C7.72079109 8.07109921 11.87314888 17.21148734 12.3125 28.375 C11.94539944 40.122218 6.89148842 50.62256049 -1.5625 58.75 C-13.83653101 68.69412688 -27.10799395 71.20062957 -42.55859375 69.76171875 C-51.47910249 68.18751132 -58.60961324 63.0762781 -64.4296875 56.3203125 C-69.48285836 48.8536869 -70.612437 43.16529288 -70.4375 34.125 C-70.44458984 33.10019531 -70.45167969 32.07539063 -70.45898438 31.01953125 C-70.38966987 22.62714368 -69.12841224 14.52165627 -64.4375 7.375 C-64.02371094 6.72273438 -63.60992188 6.07046875 -63.18359375 5.3984375 C-62.79300781 4.93695313 -62.40242187 4.47546875 -62 4 C-61.34 4 -60.68 4 -60 4 C-59.76539063 3.40445312 -59.53078125 2.80890625 -59.2890625 2.1953125 C-56.32321974 -2.8556076 -49.46330869 -5.83376246 -43.9375 -7.3125 C-27.51643397 -10.17967026 -13.61152139 -10.71070536 0 0 Z " fill="#0A9BB4" transform="translate(867,300)"/>
<path d="M0 0 C8.55600121 6.06879155 13.50348077 14.70212224 16.1640625 24.73046875 C16.2259375 25.69984375 16.2878125 26.66921875 16.3515625 27.66796875 C16.40183594 28.42722656 16.45210937 29.18648438 16.50390625 29.96875 C16.79130691 37.54463134 15.41104334 43.28011717 10.7890625 49.35546875 C6.46856469 53.99600343 1.10006055 57.35375641 -5.3046875 57.890625 C-10.75727352 57.55394424 -14.4146062 56.24320407 -18.6484375 52.66796875 C-19.21175781 52.21808594 -19.77507813 51.76820313 -20.35546875 51.3046875 C-28.54687594 44.11266768 -32.23741857 33.54561757 -33.45703125 22.94140625 C-34.32806129 8.04501487 -34.32806129 8.04501487 -30.0859375 2.54296875 C-21.80686472 -5.36334957 -9.64612717 -5.46613873 0 0 Z " fill="#109DB6" transform="translate(941.6484375,316.33203125)"/>
<path d="M0 0 C5.35055316 3.73732105 10.49525077 9.18753295 11.73828125 15.78515625 C12.04404851 23.42933769 9.62498655 29.34763481 5.33203125 35.62890625 C0.45463137 40.46956489 -4.00413962 42.76303202 -10.91796875 42.87890625 C-19.60435224 42.74211281 -24.44419252 39.2969611 -30.75 33.6640625 C-34.91355494 29.2461152 -35.58020547 24.53830036 -35.66796875 18.62890625 C-34.9554266 12.49878169 -32.68510762 6.34433123 -28.02734375 2.15234375 C-18.99791294 -4.56084176 -9.9977266 -5.52630242 0 0 Z " fill="#149EB7" transform="translate(943.66796875,210.37109375)"/>
<path d="M0 0 C0.66 0.33 1.32 0.66 2 1 C-2.29 5.29 -6.58 9.58 -11 14 C-11 9.68381834 -8.86729652 8.07210341 -6 5 C-5.34 5 -4.68 5 -4 5 C-3.67 4.01 -3.34 3.02 -3 2 C-2.01 1.34 -1.02 0.68 0 0 Z " fill="#81CAD6" transform="translate(312,317)"/>
</svg>
